<?xml version="1.0" encoding="utf-8"?>
<!-- Generator: Adobe Illustrator 21.0.2, SVG Export Plug-In . SVG Version: 6.00 Build 0)  -->
<!DOCTYPE svg PUBLIC "-//W3C//DTD SVG 1.1//EN" "http://www.w3.org/Graphics/SVG/1.1/DTD/svg11.dtd">
<svg version="1.1" id="Layer_1" xmlns="http://www.w3.org/2000/svg" xmlns:xlink="http://www.w3.org/1999/xlink" x="0px" y="0px"
	 viewBox="0 0 211.6 70.1" style="enable-background:new 0 0 211.6 70.1;" xml:space="preserve">
<style type="text/css">
	.st0{fill:#2CABE2;}
	.st1{fill:#004878;}
</style>
<g>
	<g>
		<path class="st0" d="M44.1,62.7c1.2,3.2,4.8,4.9,8,3.7c3.2-1.2,4.9-4.8,3.7-8l-6.4-17.6c-1.2-3.2-4.8-4.9-8-3.7L6.3,49.8
			c-3.2,1.2-4.9,4.8-3.7,8c1.2,3.2,4.8,4.9,8,3.7l29.2-10.6L44.1,62.7z"/>
		<path class="st1" d="M25.6,11.7c-1.2-3.2,0.5-6.8,3.7-8c3.2-1.2,6.8,0.5,8,3.7c1.2,3.2-0.5,6.8-3.7,8C30.3,16.6,26.8,15,25.6,11.7
			"/>
		<path class="st0" d="M16.2,40.6c-3.2,1.2-6.8-0.5-8-3.7c-1.2-3.2,0.5-6.8,3.7-8l41-14.9c3.2-1.2,6.8,0.5,8,3.7
			c1.2,3.2-0.5,6.8-3.7,8L16.2,40.6z"/>
	</g>
	<g>
		<path class="st1" d="M95.6,19.1c0,0.6-0.5,1.1-1,1.1c-0.4,0-0.9-0.3-1-0.7l-1.2-3.1h-8.6l-1.2,3.1c-0.1,0.4-0.5,0.7-1,0.7
			c-0.6,0-1.1-0.5-1.1-1c0-0.1,0.1-0.3,0.1-0.4l5.7-14.2c0.3-0.7,0.9-1.2,1.7-1.2s1.4,0.5,1.7,1.2l5.8,14.2
			C95.6,18.8,95.6,18.9,95.6,19.1z M91.7,14.5l-3.6-9.3l-3.6,9.3H91.7z"/>
	</g>
	<g>
		<path class="st1" d="M100.9,19.1V5.2h-4.4c-0.5,0-0.9-0.4-0.9-0.9s0.4-0.9,0.9-0.9h11c0.5,0,0.9,0.4,0.9,0.9s-0.4,0.9-0.9,0.9H103
			v13.9c0,0.5-0.4,1-1,1S100.9,19.7,100.9,19.1z"/>
		<path class="st1" d="M123.6,19.1v-6.7h-9.7v6.7c0,0.5-0.5,1-1,1c-0.6,0-1-0.5-1-1V4.3c0-0.5,0.4-1,1-1c0.6,0,1,0.5,1,1v6.2h9.7
			V4.3c0-0.5,0.5-1,1-1c0.6,0,1,0.5,1,1v14.8c0,0.5-0.5,1-1.1,1C124,20.1,123.6,19.7,123.6,19.1z"/>
		<path class="st1" d="M130.3,18.9V4.3c0-0.5,0.4-1,1-1c0.5,0,1,0.5,1,1v13.9h6.9c0.5,0,0.9,0.4,0.9,0.9c0,0.5-0.4,0.9-0.9,0.9h-7.9
			C130.7,20,130.3,19.6,130.3,18.9z"/>
		<path class="st1" d="M143.8,18.9V4.5c0-0.7,0.4-1.1,1.1-1.1h9c0.5,0,0.9,0.4,0.9,0.9s-0.4,0.9-0.9,0.9h-8v5.4h7.8
			c0.5,0,1,0.4,1,0.9c0,0.5-0.4,0.9-1,0.9h-7.8v5.7h8c0.5,0,0.9,0.4,0.9,0.9c0,0.5-0.4,0.9-0.9,0.9h-9
			C144.2,20,143.8,19.6,143.8,18.9z"/>
		<path class="st1" d="M162.8,19.1V5.2h-4.4c-0.5,0-0.9-0.4-0.9-0.9s0.4-0.9,0.9-0.9h11c0.5,0,0.9,0.4,0.9,0.9s-0.4,0.9-0.9,0.9
			h-4.5v13.9c0,0.5-0.4,1-1,1C163.3,20.1,162.8,19.7,162.8,19.1z"/>
		<path class="st1" d="M173.7,19.1V4.3c0-0.5,0.4-1,1-1c0.5,0,1,0.5,1,1v14.8c0,0.5-0.5,1-1,1C174.1,20.1,173.7,19.7,173.7,19.1z"/>
		<path class="st1" d="M179.7,11.7c0-5.1,3.8-8.6,8.5-8.6c2.5,0,4.3,0.9,5.7,2.4c0.2,0.2,0.2,0.4,0.2,0.7c0,0.5-0.4,1-1,1
			c-0.3,0-0.6-0.1-0.8-0.3c-1-1.1-2.5-1.9-4.2-1.9c-3.6,0-6.3,2.8-6.3,6.8c0,3.9,2.8,6.8,6.3,6.8c1.7,0,3.2-0.7,4.2-1.9
			c0.2-0.2,0.4-0.3,0.8-0.3c0.5,0,1,0.4,1,1c0,0.2-0.1,0.5-0.2,0.7c-1.4,1.5-3.2,2.4-5.7,2.4C183.5,20.3,179.7,16.8,179.7,11.7z"/>
		<path class="st1" d="M197.1,17.5c0-0.6,0.5-1,1-1c0.2,0,0.5,0.1,0.6,0.2c1.1,1,2.6,1.8,4.6,1.8c3,0,3.9-1.6,3.9-2.9
			c0-2-2-2.6-4.2-3.2c-2.7-0.7-5.6-1.4-5.6-4.7c0-2.7,2.4-4.6,5.9-4.6c2.1,0,3.7,0.6,5.1,1.7c0.3,0.2,0.4,0.5,0.4,0.8
			c0,0.5-0.5,1-1,1c-0.2,0-0.4-0.1-0.6-0.2c-1.2-1-2.7-1.4-4.1-1.4c-2.1,0-3.6,1.1-3.6,2.6c0,1.7,1.9,2.2,4,2.7
			c2.7,0.7,5.8,1.6,5.8,5.1c0,2.4-1.6,4.9-6.1,4.9c-2.4,0-4.4-0.8-5.7-2C197.3,18.1,197.1,17.8,197.1,17.5z"/>
	</g>
	<g>
		<path class="st1" d="M80.5,42V28c0-0.8,0.7-1.5,1.5-1.5c0.8,0,1.4,0.7,1.4,1.5v14c0,0.8-0.6,1.5-1.4,1.5
			C81.1,43.5,80.5,42.8,80.5,42z"/>
		<path class="st1" d="M99.2,42.7l-8.3-11.5V42c0,0.8-0.6,1.5-1.4,1.5c-0.8,0-1.5-0.7-1.5-1.5V28.4c0-1,0.9-1.9,1.9-1.9
			c0.6,0,1.2,0.3,1.5,0.8l8,11.2V28c0-0.8,0.7-1.5,1.5-1.5c0.8,0,1.5,0.7,1.5,1.5v13.7c0,1-0.8,1.8-1.8,1.8
			C100,43.5,99.5,43.2,99.2,42.7z"/>
		<path class="st1" d="M110.9,42V29.2H107c-0.7,0-1.3-0.6-1.3-1.3c0-0.7,0.6-1.3,1.3-1.3h10.7c0.7,0,1.3,0.6,1.3,1.3
			c0,0.7-0.6,1.3-1.3,1.3h-3.9V42c0,0.8-0.6,1.5-1.4,1.5C111.5,43.5,110.9,42.8,110.9,42z"/>
		<path class="st1" d="M122.3,41.8V28.2c0-1,0.5-1.5,1.6-1.5h8.7c0.7,0,1.3,0.6,1.3,1.3c0,0.7-0.6,1.3-1.3,1.3h-7.3v4.3h7.2
			c0.7,0,1.3,0.6,1.3,1.3c0,0.7-0.6,1.3-1.3,1.3h-7.2v4.6h7.3c0.7,0,1.3,0.6,1.3,1.3c0,0.7-0.6,1.3-1.3,1.3h-8.7
			C122.9,43.3,122.3,42.8,122.3,41.8z"/>
		<path class="st1" d="M152.6,35.9v3.6c0,0.8-0.2,1.4-0.8,1.9c-1.6,1.4-3.6,2.3-6.1,2.3c-4.8,0-8.7-3.4-8.7-8.6
			c0-5.2,3.9-8.6,8.7-8.6c2.5,0,4.3,0.9,5.7,2.2c0.2,0.2,0.4,0.6,0.4,1c0,0.8-0.6,1.3-1.3,1.3c-0.4,0-0.7-0.1-1-0.4
			c-0.9-1-2.2-1.6-3.7-1.6c-3.3,0-5.7,2.5-5.7,6s2.4,6,5.7,6c1.7,0,3.2-0.8,4-1.5V37h-3.8c-0.7,0-1.3-0.6-1.3-1.3
			c0-0.7,0.6-1.3,1.3-1.3h5.2C152.1,34.4,152.6,34.9,152.6,35.9z"/>
		<path class="st1" d="M169.5,42.2c0,0.6-0.5,1.3-1.4,1.3c-0.5,0-0.9-0.2-1.2-0.6l-3.9-5.7h-3.4V42c0,0.8-0.6,1.5-1.4,1.5
			c-0.8,0-1.5-0.7-1.5-1.5V28.2c0-1,0.5-1.5,1.6-1.5h5.8c3.3,0,5.4,2.1,5.4,5.2c0,2.7-1.6,4.3-3.4,4.8l3.2,4.5
			C169.3,41.5,169.5,41.7,169.5,42.2z M159.5,34.5h4c1.6,0,2.9-1,2.9-2.6s-1.2-2.6-2.9-2.6h-4V34.5z"/>
		<path class="st1" d="M173.3,42V28c0-0.8,0.7-1.5,1.5-1.5c0.8,0,1.4,0.7,1.4,1.5v14c0,0.8-0.6,1.5-1.4,1.5
			C174,43.5,173.3,42.8,173.3,42z"/>
		<path class="st1" d="M184.7,42V29.2h-3.9c-0.7,0-1.3-0.6-1.3-1.3c0-0.7,0.6-1.3,1.3-1.3h10.7c0.7,0,1.3,0.6,1.3,1.3
			c0,0.7-0.6,1.3-1.3,1.3h-3.9V42c0,0.8-0.6,1.5-1.4,1.5C185.4,43.5,184.7,42.8,184.7,42z"/>
		<path class="st1" d="M208.9,28.7l-5.1,7.7V42c0,0.8-0.7,1.5-1.5,1.5c-0.8,0-1.5-0.7-1.5-1.5v-5.6l-5.1-7.7
			c-0.2-0.2-0.2-0.5-0.2-0.8c0-0.8,0.6-1.4,1.4-1.4c0.5,0,0.9,0.2,1.2,0.7l4.3,6.6l4.2-6.6c0.2-0.4,0.7-0.7,1.2-0.7
			c0.8,0,1.4,0.6,1.4,1.4C209.2,28.2,209.1,28.5,208.9,28.7z"/>
	</g>
	<g>
		<path class="st1" d="M80.7,50.9c0-0.5,0.4-1,1-1c0.6,0,1,0.5,1,1v9.2c0,3.1,1.6,5,4.7,5c3.1,0,4.7-1.9,4.7-5v-9.2
			c0-0.5,0.5-1,1.1-1c0.6,0,1,0.5,1,1v9.2c0,4.1-2.3,6.8-6.8,6.8s-6.8-2.7-6.8-6.8V50.9z"/>
	</g>
	<g>
		<path class="st1" d="M109.8,66.3l-9.4-13v12.5c0,0.5-0.5,1-1,1c-0.6,0-1-0.5-1-1V51.3c0-0.7,0.6-1.3,1.3-1.3
			c0.4,0,0.8,0.2,1.1,0.5l9.3,12.7V50.9c0-0.5,0.5-1,1-1c0.6,0,1,0.5,1,1v14.6c0,0.7-0.6,1.3-1.3,1.3
			C110.4,66.8,110,66.6,109.8,66.3z"/>
	</g>
	<g>
		<path class="st1" d="M117,65.8V50.9c0-0.5,0.4-1,1-1c0.5,0,1,0.5,1,1v14.8c0,0.5-0.5,1-1,1C117.4,66.8,117,66.3,117,65.8z"/>
	</g>
	<g>
		<path class="st1" d="M128.1,65.8V51.9h-4.4c-0.5,0-0.9-0.4-0.9-0.9c0-0.5,0.4-0.9,0.9-0.9h11c0.5,0,0.9,0.4,0.9,0.9
			c0,0.5-0.4,0.9-0.9,0.9h-4.5v13.9c0,0.5-0.4,1-1,1C128.5,66.8,128.1,66.3,128.1,65.8z"/>
	</g>
</g>
</svg>
